<?xml version="1.0" standalone="no"?><!DOCTYPE svg PUBLIC "-//W3C//DTD SVG 1.1//EN" "http://www.w3.org/Graphics/SVG/1.1/DTD/svg11.dtd"><svg t="1750741139178" class="icon" viewBox="0 0 1024 1024" version="1.1" xmlns="http://www.w3.org/2000/svg" p-id="5680" xmlns:xlink="http://www.w3.org/1999/xlink" width="200" height="200"><path d="M748.8 844.8c-172.8 115.2-409.6 96-563.2-57.6-172.8-172.8-172.8-460.8 0-633.6s460.8-172.8 633.6 0c166.4 166.4 172.8 428.8 25.6 608l128 128c25.6 25.6 25.6 64 0 89.6-25.6 25.6-64 25.6-89.6 0l-134.4-134.4z m-19.2-153.6c128-128 128-326.4 0-454.4s-326.4-128-454.4 0-128 326.4 0 454.4 332.8 128 454.4 0z" p-id="5681"></path></svg>