<?xml version="1.0" standalone="no"?><!DOCTYPE svg PUBLIC "-//W3C//DTD SVG 1.1//EN" "http://www.w3.org/Graphics/SVG/1.1/DTD/svg11.dtd"><svg t="1750741163202" class="icon" viewBox="0 0 1024 1024" version="1.1" xmlns="http://www.w3.org/2000/svg" p-id="6695" xmlns:xlink="http://www.w3.org/1999/xlink" width="200" height="200"><path d="M448 448h-128c-38.4 0-64 25.6-64 64s25.6 64 64 64h128v128c0 38.4 25.6 64 64 64s64-25.6 64-64v-128h128c38.4 0 64-25.6 64-64s-25.6-64-64-64h-128v-128c0-38.4-25.6-64-64-64s-64 25.6-64 64v128z m64 576c-281.6 0-512-230.4-512-512s230.4-512 512-512 512 230.4 512 512-230.4 512-512 512z" fill="#26BC79" p-id="6696"></path></svg>